<?xml version="1.0" encoding="UTF-8" standalone="no"?>
<!DOCTYPE svg PUBLIC "-//W3C//DTD SVG 1.1//EN" "http://www.w3.org/Graphics/SVG/1.1/DTD/svg11.dtd">
<svg version="1.1" xmlns="http://www.w3.org/2000/svg" xmlns:xlink="http://www.w3.org/1999/xlink" preserveAspectRatio="xMidYMid meet" viewBox="0 0 640 640" width="640" height="640"><defs><path d="M60 40C26.88 40 0 66.88 0 100C0 144 0 496 0 540C0 573.13 26.88 600 60 600C112 600 528 600 580 600C613.13 600 640 573.13 640 540C640 496 640 144 640 100C640 66.88 613.13 40 580 40C476 40 112 40 60 40ZM475.5 424.88C470.44 429.94 429.94 470.44 424.88 475.5C418.87 481.5 409.12 481.5 403.13 475.5C397.58 469.91 369.88 441.95 320 391.63C270.13 441.95 242.42 469.91 236.88 475.5C230.88 481.5 221.13 481.5 215.13 475.5C210.06 470.44 169.56 429.94 164.5 424.88C158.5 418.87 158.5 409.12 164.5 403.13C170.09 397.58 198.05 369.88 248.38 320C198.05 270.13 170.09 242.42 164.5 236.88C158.5 230.88 158.5 221.13 164.5 215.13C169.56 210.06 210.06 169.56 215.13 164.5C221.13 158.5 230.88 158.5 236.88 164.5C242.42 170.09 270.13 198.05 320 248.38C369.88 198.05 397.58 170.09 403.13 164.5C409.13 158.5 418.88 158.5 424.88 164.5C429.94 169.56 470.44 210.06 475.5 215.13C481.5 221.13 481.5 230.88 475.5 236.88C469.91 242.42 441.95 270.13 391.63 320L475.5 403.13C479.5 413.63 479.5 420.88 475.5 424.88Z" id="d2UyB9ctj7"></path><path d="M0 0L640 0L640 100L0 100L0 0Z" id="ie88LcGcA"></path><path d="M0 540.59L640 540.59L640 640L0 640L0 540.59Z" id="avAeaJUBg"></path></defs><g><g><g><use xlink:href="#d2UyB9ctj7" opacity="1" fill="#000000" fill-opacity="1"></use><g><use xlink:href="#d2UyB9ctj7" opacity="1" fill-opacity="0" stroke="#000000" stroke-width="1" stroke-opacity="0"></use></g></g><g><use xlink:href="#ie88LcGcA" opacity="1" fill="#000000" fill-opacity="1"></use></g><g><use xlink:href="#avAeaJUBg" opacity="1" fill="#000000" fill-opacity="1"></use></g></g></g></svg>